<?xml version="1.0" encoding="utf-8"?>
<!-- Generator: Adobe Illustrator 16.0.0, SVG Export Plug-In . SVG Version: 6.00 Build 0)  -->
<!DOCTYPE svg PUBLIC "-//W3C//DTD SVG 1.1//EN" "http://www.w3.org/Graphics/SVG/1.1/DTD/svg11.dtd">
<svg version="1.1" id="Layer_1" xmlns="http://www.w3.org/2000/svg" xmlns:xlink="http://www.w3.org/1999/xlink" x="0px" y="0px"
	 width="960px" height="560px" viewBox="0 0 960 560" enable-background="new 0 0 960 560" xml:space="preserve">
<g>
	<path fill="#FFFFFF" d="M555.7,112.595H403.776c-22.773,0-41.3,18.527-41.3,41.3v140.813v111.111c0,22.772,18.526,41.3,41.3,41.3
		H555.7c22.773,0,41.3-18.527,41.3-41.3V294.708V153.895C597,131.122,578.474,112.595,555.7,112.595z M527.357,374.137
		c0,15.905-12.895,28.8-28.801,28.8H460.92c-15.906,0-28.801-12.895-28.801-28.8v-13.829c0-15.905,12.895-28.8,28.801-28.8h37.637
		c15.906,0,28.801,12.895,28.801,28.8V374.137z M572,294.708c0,8.987-7.312,16.3-16.3,16.3H403.776c-8.988,0-16.3-7.312-16.3-16.3
		V153.895c0-8.988,7.312-16.3,16.3-16.3H555.7c8.988,0,16.3,7.312,16.3,16.3V294.708z"/>
	<path fill="#FFFFFF" d="M508.857,191.154c-5.604,4.033-6.877,11.845-2.844,17.447c3.969,5.514,6.066,12.037,6.066,18.862
		c0,17.833-14.508,32.341-32.342,32.341c-17.832,0-32.342-14.508-32.342-32.341c0.002-6.483,1.908-12.733,5.518-18.074
		c3.865-5.72,2.359-13.491-3.361-17.355s-13.49-2.36-17.355,3.36c-6.41,9.49-9.799,20.579-9.801,32.069
		c0,31.618,25.725,57.341,57.342,57.341c31.619,0,57.342-25.723,57.342-57.342c0-12.099-3.727-23.671-10.775-33.465
		C522.271,188.394,514.461,187.121,508.857,191.154z"/>
</g>
</svg>
