<?xml version="1.0" encoding="utf-8"?>
<!-- Generator: Adobe Illustrator 16.0.0, SVG Export Plug-In . SVG Version: 6.00 Build 0)  -->
<!DOCTYPE svg PUBLIC "-//W3C//DTD SVG 1.1//EN" "http://www.w3.org/Graphics/SVG/1.1/DTD/svg11.dtd">
<svg version="1.1" id="Layer_1" xmlns="http://www.w3.org/2000/svg" xmlns:xlink="http://www.w3.org/1999/xlink" x="0px" y="0px"
	 width="375.455px" height="91.455px" viewBox="0 0 375.455 91.455" enable-background="new 0 0 375.455 91.455"
	 xml:space="preserve">
<g>
	<g>
		<g>
			<path fill="#FFFFFF" d="M363.229,14.553c1.191,0,2.335,0.31,3.427,0.895c1.095,0.594,1.956,1.447,2.576,2.557
				c0.63,1.115,0.943,2.286,0.943,3.492c0,1.205-0.307,2.369-0.92,3.464c-0.612,1.095-1.467,1.949-2.568,2.569
				c-1.099,0.605-2.253,0.909-3.458,0.909s-2.359-0.304-3.461-0.909c-1.099-0.62-1.949-1.475-2.563-2.569
				c-0.617-1.095-0.923-2.259-0.923-3.464c0-1.206,0.31-2.377,0.94-3.492c0.623-1.109,1.48-1.963,2.583-2.557
				C360.891,14.862,362.038,14.553,363.229,14.553z M363.232,15.91c-0.953,0-1.869,0.24-2.741,0.723
				c-0.878,0.469-1.566,1.157-2.073,2.053c-0.499,0.895-0.761,1.839-0.761,2.811c0,0.978,0.252,1.9,0.744,2.789
				c0.492,0.875,1.181,1.563,2.063,2.073c0.882,0.489,1.809,0.729,2.769,0.729c0.982,0,1.905-0.24,2.79-0.729
				c0.871-0.51,1.561-1.198,2.056-2.073c0.5-0.889,0.748-1.812,0.748-2.789c0-0.972-0.259-1.916-0.758-2.811
				c-0.503-0.896-1.195-1.584-2.077-2.053C365.109,16.15,364.193,15.91,363.232,15.91z M360.089,25.222v-7.384h1.498
				c1.405,0,2.19,0.007,2.362,0.021c0.492,0.047,0.878,0.145,1.153,0.303c0.272,0.151,0.503,0.379,0.689,0.702
				c0.176,0.31,0.275,0.675,0.275,1.054c0,0.531-0.173,0.985-0.521,1.363c-0.348,0.394-0.837,0.613-1.463,0.71
				c0.22,0.076,0.389,0.173,0.513,0.269c0.124,0.11,0.289,0.289,0.503,0.578c0.048,0.07,0.234,0.359,0.541,0.883l0.871,1.501h-1.85
				l-0.616-1.205c-0.424-0.806-0.765-1.31-1.037-1.522c-0.271-0.199-0.616-0.316-1.033-0.316h-0.389v3.044H360.089z M361.587,21.02
				h0.609c0.857,0,1.401-0.027,1.608-0.096c0.206-0.063,0.375-0.186,0.496-0.352c0.12-0.165,0.179-0.344,0.179-0.558
				c0-0.206-0.059-0.386-0.176-0.552c-0.12-0.158-0.289-0.275-0.503-0.344c-0.22-0.063-0.758-0.104-1.604-0.104h-0.609V21.02z"/>
		</g>
	</g>
	<g>
		<path fill="#FFFFFF" d="M196.827,86.84H184.79V7.086h12.037V86.84z"/>
		<path fill="#FFFFFF" d="M220.425,17.811c5.799,0,10.059,1.605,12.773,4.801c2.393,2.797,3.584,6.682,3.584,11.682v10.016
			c0,4.896-1.859,9.016-5.561,12.404l7.707,30.127h-11.262l-6.306-26.008c-0.3,0-0.613,0-0.937,0h-6.01V86.84h-10.404V17.811
			H220.425z M226.651,34.459c0-4.01-1.988-6.007-5.951-6.007h-6.285v22.089h6.285c1.649,0,3.051-0.592,4.219-1.77
			c1.153-1.172,1.732-2.576,1.732-4.236V34.459z"/>
		<path fill="#FFFFFF" d="M252.466,86.84l-12.342-69.029h10.913l8.661,53.808l8.73-53.808h10.918L266.782,86.84H252.466z"/>
		<path fill="#FFFFFF" d="M297.348,57.911L283.41,17.762h11.454l7.711,24.79l7.656-24.79h11.516l-13.999,40.149V86.84h-10.4V57.911z
			"/>
		<path fill="#FFFFFF" d="M322.437,25.235h7.425l-1.233,12.122h-4.959L322.437,25.235z"/>
		<path fill="#FFFFFF" d="M353.397,59.819l-12.236-9.313c-0.857-0.571-2.842-2.403-2.842-3.939c0-3.003,2.088-2.618,3.316-2.618
			h16.317v-9.298h-18.665c-4.42,0-9.352,4.442-9.352,11.806c0,6.006,3.155,9.016,6.406,11.33l12.619,9.98
			c1.354,0.965,3.064,2.411,3.064,4.649c0,5.421-2.82,5.132-4.904,5.132h-6.736c-0.971,0-8.379-0.069-9.236-0.393v9.519
			c0.854,0.138,8.203,0.165,9.236,0.165h9.089c5.645,0,10.935-4.449,10.935-13.844C360.409,66.314,357.199,62.54,353.397,59.819z"/>
	</g>
	<path fill="#FFFFFF" d="M172.31,62.781l-2.91-3.623c0.975-1.439,1.529-3.106,1.529-4.877c0-2.824-1.429-5.518-3.926-7.411
		l-2.831,3.727c1.34,1.026,2.077,2.335,2.077,3.685c0,0.289-0.041,0.578-0.106,0.848l-8.414-10.449
		c-1.439-1.812-2.783-4.153-2.821-4.877c0-2.361,1.925-4.283,4.298-4.283l0,0c1.253,0,2.449,0.543,3.265,1.501l3.561-3.038
		c-1.708-1.996-4.198-3.154-6.826-3.154h-0.003c-4.953,0-8.975,4.029-8.975,8.975c0,1.764,1.229,4.029,2.342,5.717
		c-3.768,1.764-6.158,5.049-6.158,8.762c0,5.565,5.497,10.098,12.264,10.098c2.731,0,5.252-0.758,7.294-1.998l2.693,3.334
		L172.31,62.781z M158.675,59.682c-4.109,0-7.58-2.473-7.58-5.4c0-2.072,1.78-3.994,4.422-4.877l7.487,9.285
		C161.761,59.316,160.266,59.682,158.675,59.682z"/>
	<path fill="#FFFFFF" d="M28.437,6.955c6.702,0,11.626,1.846,14.76,5.545c2.762,3.217,4.143,7.715,4.143,13.493v11.585
		c0,5.635-2.146,10.415-6.43,14.313l8.91,34.825H36.813l-7.298-30.053c-0.337,0-0.699,0-1.078,0h-6.943v30.053H9.464V6.955H28.437z
		 M35.628,26.18c0-4.629-2.291-6.943-6.878-6.943h-7.256v25.526h7.256c1.912,0,3.534-0.675,4.87-2.039
		c1.339-1.351,2.008-2.982,2.008-4.897V26.18z"/>
	<path fill="#FFFFFF" d="M99.006,86.84H88.588V17.811h10.418V86.84z"/>
	<path fill="#FFFFFF" d="M130.115,52.512l-13.941-12.344c-0.978-0.764-3.237-3.182-3.237-5.241c0-3.981,2.376-5.951,3.774-5.951
		h18.583v-9.829h-21.256c-5.032,0-10.642,5.903-10.642,15.643c0,7.969,3.582,11.95,7.284,15.029l14.378,13.218
		c1.54,1.288,3.492,4.456,3.492,7.411c0,5.854-3.213,5.854-5.586,5.854h-18.174l-0.024,10.538h20.87
		c6.43,0,12.453-4.422,12.453-16.875C138.091,61.121,134.44,56.107,130.115,52.512z"/>
	<g>
		<polygon fill="#FFFFFF" points="54.896,86.84 84.535,86.84 84.535,76.377 65.307,76.377 65.307,57.539 79.352,57.539 
			79.352,47.063 65.307,47.063 65.307,28.232 84.535,28.232 84.535,17.762 54.896,17.762 		"/>
		<rect x="54.896" y="6.955" fill="#FFFFFF" width="29.638" height="7.846"/>
	</g>
</g>
</svg>
